<svg xmlns="http://www.w3.org/2000/svg" width="40" height="40" viewBox="0 0 40 40">
  <defs>
    <linearGradient id="vizierBlackBody" x1="0%" y1="0%" x2="100%" y2="100%">
      <stop offset="0%" stop-color="#57534d"/>
      <stop offset="55%" stop-color="#2f2c28"/>
      <stop offset="100%" stop-color="#141311"/>
    </linearGradient>
    <linearGradient id="vizierBlackHighlight" x1="0%" y1="0%" x2="0%" y2="100%">
      <stop offset="0%" stop-color="#ffffff" stop-opacity="0.35"/>
      <stop offset="100%" stop-color="#ffffff" stop-opacity="0"/>
    </linearGradient>
  </defs>

  <!-- base -->
  <ellipse cx="20" cy="34.5" rx="11" ry="2.6" fill="url(#vizierBlackBody)" stroke="#000000" stroke-width="1.1"/>
  <path d="M11 34 C11 31.5 13 30.5 14.5 30 C12.5 27.5 12 24.5 13.5 21.5 C11.8 19.6 12 17 14.5 15.4 C13.4 13.4 14.2 11 16.5 9.8 C15.9 8.6 16.4 7.2 17.6 6.5 C18.9 5.8 21.1 5.8 22.4 6.5 C23.6 7.2 24.1 8.6 23.5 9.8 C25.8 11 26.6 13.4 25.5 15.4 C28 17 28.2 19.6 26.5 21.5 C28 24.5 27.5 27.5 25.5 30 C27 30.5 29 31.5 29 34 Z"
        fill="url(#vizierBlackBody)" stroke="#000000" stroke-width="1.1" stroke-linejoin="round"/>

  <!-- collar ring -->
  <path d="M13 21.7 C16 23 24 23 27 21.7" fill="none" stroke="#000000" stroke-width="1" opacity="0.8"/>
  <!-- waist ring -->
  <path d="M14.3 15.6 C17 16.8 23 16.8 25.7 15.6" fill="none" stroke="#000000" stroke-width="1" opacity="0.8"/>

  <!-- turban swirl finial -->
  <circle cx="20" cy="6.6" r="2.4" fill="url(#vizierBlackBody)" stroke="#000000" stroke-width="1"/>
  <path d="M18.2 5.4 C19.2 4.6 20.8 4.6 21.8 5.4" fill="none" stroke="#66625c" stroke-width="0.7" stroke-linecap="round"/>

  <!-- soft gloss highlight -->
  <path d="M14.5 12 C15 9.5 17 8 19 7.6 C17.2 9.4 16 12.5 16 16 C16 20 17 24.5 18.5 28.5 C16.5 26 15 22 14.7 18 C14.5 16 14.3 14 14.5 12 Z"
        fill="url(#vizierBlackHighlight)" opacity="0.6"/>
</svg>
