<svg xmlns="http://www.w3.org/2000/svg" width="24" height="24" viewBox="0 0 18 19">
  <g id="annotation_counterplay_white">
    <path class="icon-shadow" opacity="0.3" d="M9,.5a9,9,0,1,0,9,9A9,9,0,0,0,9,.5Z"></path>
    <path class="icon-background" fill="#000000" d="M9,0a9,9,0,1,0,9,9A9,9,0,0,0,9,0Z"></path>
    <!-- Shadow -->
    <g class="icon-component-shadow" opacity="0.2">
      <line x1="5" y1="7.5" x2="13" y2="7.5" stroke="#000000" stroke-width="2" stroke-linecap="round"></line>
      <path d="M 7.5,5.5 L 5,7.5 L 7.5,9.5" stroke="#000000" stroke-width="2" stroke-linecap="round" stroke-linejoin="round" fill="none"></path>
      <line x1="5" y1="12.5" x2="13" y2="12.5" stroke="#000000" stroke-width="2" stroke-linecap="round"></line>
      <path d="M 10.5,10.5 L 13,12.5 L 10.5,14.5" stroke="#000000" stroke-width="2" stroke-linecap="round" stroke-linejoin="round" fill="none"></path>
    </g>
    <!-- Foreground -->
    <g>
      <line class="icon-component" x1="5" y1="7" x2="13" y2="7" stroke="#000000" stroke-width="2" stroke-linecap="round"></line>
      <path class="icon-component" d="M 7.5,5 L 5,7 L 7.5,9" stroke="#000000" stroke-width="2" stroke-linecap="round" stroke-linejoin="round" fill="none"></path>
      <line class="icon-component" x1="5" y1="12" x2="13" y2="12" stroke="#000000" stroke-width="2" stroke-linecap="round"></line>
      <path class="icon-component" d="M 10.5,10 L 13,12 L 10.5,14" stroke="#000000" stroke-width="2" stroke-linecap="round" stroke-linejoin="round" fill="none"></path>
    </g>
  </g>
</svg>
