<svg xmlns="http://www.w3.org/2000/svg" width="24" height="24" viewBox="0 0 18 19">
  <g id="annotation_interesting">
    <path class="icon-shadow" opacity="0.3" d="M9,.5a9,9,0,1,0,9,9A9,9,0,0,0,9,.5Z"></path>
    <path class="icon-background" fill="#000000" d="M9,0a9,9,0,1,0,9,9A9,9,0,0,0,9,0Z"></path>
    <g class="icon-component-shadow" opacity="0.2">
      <!-- Left ! shadow -->
      <path d="M8.07,14.6a.51.51,0,0,1,0,.13.44.44,0,0,1-.08.11l-.11.08-.13,0h-2l-.13,0-.11-.08a.41.41,0,0,1-.08-.24V12.7a.27.27,0,0,1,0-.13.36.36,0,0,1,.07-.1.39.39,0,0,1,.1-.08l.13,0h2a.31.31,0,0,1,.24.1.39.39,0,0,1,.08.1.51.51,0,0,1,0,.13ZM8,10.67a.17.17,0,0,1,0,.12.41.41,0,0,1-.07.11.4.4,0,0,1-.23.08H5.85a.31.31,0,0,1-.34-.31L5.36,3.9a.36.36,0,0,1,.09-.24.23.23,0,0,1,.11-.08.27.27,0,0,1,.13,0H7.8a.35.35,0,0,1,.25.1.36.36,0,0,1,.09.24Z"></path>
      <!-- Right ? shadow -->
      <path d="M14.74,5.45A2.58,2.58,0,0,0,14,4.54,3.76,3.76,0,0,0,12.89,4,4.07,4.07,0,0,0,12,3.81,3.92,3.92,0,0,0,10.87,4a5.87,5.87,0,0,0-.9.37,3,3,0,0,0-.32.2,3.46,3.46,0,0,1,.42.63,3.29,3.29,0,0,1,.36,1.47.31.31,0,0,0,.19-.06l.11-.08a2.9,2.9,0,0,1,.29-.19,3.89,3.89,0,0,1,.41-.17,1.55,1.55,0,0,1,.48-.07,1.1,1.1,0,0,1,.72.24.72.72,0,0,1,.23.26.8.8,0,0,1,.07.34,1,1,0,0,1-.25.67,7.71,7.71,0,0,1-.65.63,6.2,6.2,0,0,0-.48.43,2.93,2.93,0,0,0-.45.54,2.55,2.55,0,0,0-.33.66,2.62,2.62,0,0,0-.13.83V11a.24.24,0,0,0,0,.12.35.35,0,0,0,.17.17l.12,0h1.71l.12,0a.23.23,0,0,0,.1-.07.21.21,0,0,0,.06-.1.27.27,0,0,0,0-.12V10.8a1,1,0,0,1,.26-.7q.27-.28.66-.63A5.79,5.79,0,0,0,14.05,9a4.51,4.51,0,0,0,.48-.6,2.56,2.56,0,0,0,.36-.72,2.81,2.81,0,0,0,.14-1A2.66,2.66,0,0,0,14.74,5.45Z"></path>
      <path d="M12.38,12.65H10.5l-.12,0a.34.34,0,0,0-.18.29v1.82a.36.36,0,0,0,.08.23.23.23,0,0,0,.1.07l.12,0h1.88a.24.24,0,0,0,.12,0,.26.26,0,0,0,.11-.07.36.36,0,0,0,.07-.1.28.28,0,0,0,0-.13V13a.27.27,0,0,0,0-.12.61.61,0,0,0-.07-.1A.32.32,0,0,0,12.38,12.65Z"></path>
    </g>
    <g>
      <!-- Left ! component -->
      <path class="icon-component" fill="#fff" d="M8.07,14.1a.51.51,0,0,1,0,.13.44.44,0,0,1-.08.11l-.11.08-.13,0h-2l-.13,0-.11-.08a.41.41,0,0,1-.08-.24V12.2a.27.27,0,0,1,0-.13.36.36,0,0,1,.07-.1.39.39,0,0,1,.1-.08l.13,0h2A.31.31,0,0,1,8,12a.39.39,0,0,1,.08.1.51.51,0,0,1,0,.13ZM8,10.17a.17.17,0,0,1,0,.12.41.41,0,0,1-.07.11.4.4,0,0,1-.23.08H5.85a.31.31,0,0,1-.34-.31L5.36,3.4a.36.36,0,0,1,.09-.24.23.23,0,0,1,.11-.08.27.27,0,0,1,.13,0H7.8a.35.35,0,0,1,.25.1.36.36,0,0,1,.09.24Z"></path>
      <!-- Right ? component -->
      <path class="icon-component" fill="#fff" d="M14.74,5A2.58,2.58,0,0,0,14,4a3.76,3.76,0,0,0-1.09-.56,4.07,4.07,0,0,0-1.2-.19,3.92,3.92,0,0,0-1.18.17,5.87,5.87,0,0,0-.9.37,3,3,0,0,0-.32.2,3.46,3.46,0,0,1,.42.63,3.29,3.29,0,0,1,.36,1.47.31.31,0,0,0,.19-.06L10.37,6a2.9,2.9,0,0,1,.29-.19,3.89,3.89,0,0,1,.41-.17,1.55,1.55,0,0,1,.48-.07,1.1,1.1,0,0,1,.72.24.72.72,0,0,1,.23.26.8.8,0,0,1,.07.34,1,1,0,0,1-.25.67,7.71,7.71,0,0,1-.65.63,6.2,6.2,0,0,0-.48.43,2.93,2.93,0,0,0-.45.54,2.55,2.55,0,0,0-.33.66,2.62,2.62,0,0,0-.13.83v.35a.24.24,0,0,0,0,.12.35.35,0,0,0,.17.17l.12,0h1.71l.12,0a.23.23,0,0,0,.1-.07.21.21,0,0,0,.06-.1.27.27,0,0,0,0-.12V10.3a1,1,0,0,1,.26-.7q.27-.28.66-.63a5.79,5.79,0,0,0,.51-.48,4.51,4.51,0,0,0,.48-.6,2.56,2.56,0,0,0,.36-.72,2.81,2.81,0,0,0,.14-1A2.66,2.66,0,0,0,14.74,5Z"></path>
      <path class="icon-component" fill="#fff" d="M12.38,12.15H10.5l-.12,0a.34.34,0,0,0-.18.29v1.82a.36.36,0,0,0,.08.23.23.23,0,0,0,.1.07l.12,0h1.88a.24.24,0,0,0,.12,0,.26.26,0,0,0,.11-.07.36.36,0,0,0,.07-.1.28.28,0,0,0,0-.13V12.46a.27.27,0,0,0,0-.12.61.61,0,0,0-.07-.1A.32.32,0,0,0,12.38,12.15Z"></path>
    </g>
  </g>
</svg>
