<svg xmlns="http://www.w3.org/2000/svg" width="24" height="24" viewBox="0 0 18 19">
  <g id="annotation_dubious_white">
    <path class="icon-shadow" opacity="0.3" d="M9,.5a9,9,0,1,0,9,9A9,9,0,0,0,9,.5Z"></path>
    <path class="icon-background" fill="#000000" d="M9,0a9,9,0,1,0,9,9A9,9,0,0,0,9,0Z"></path>
    <g class="icon-component-shadow" opacity="0.2">
      <!-- Left ? shadow -->
      <path d="M6.79,12.65H4.91l-.12,0a.34.34,0,0,0-.18.29v1.82a.36.36,0,0,0,.08.23.23.23,0,0,0,.1.07l.12,0H6.79a.24.24,0,0,0,.12,0A.26.26,0,0,0,7,15a.36.36,0,0,0,.07-.1.28.28,0,0,0,0-.13V13a.27.27,0,0,0,0-.12.61.61,0,0,0-.07-.1A.32.32,0,0,0,6.79,12.65Z"></path>
      <path d="M8.39,4.54A3.76,3.76,0,0,0,7.3,4a4.07,4.07,0,0,0-1.2-.19A3.92,3.92,0,0,0,4.92,4a5.87,5.87,0,0,0-.9.37,3.37,3.37,0,0,0-.55.38l-.21.19a.32.32,0,0,0,0,.41l1,1.2a.26.26,0,0,0,.2.12.48.48,0,0,0,.24-.06l.11-.08a2.9,2.9,0,0,1,.29-.19l.4-.17A1.66,1.66,0,0,1,6,6.06a1.1,1.1,0,0,1,.72.24.72.72,0,0,1,.23.26A.77.77,0,0,1,7,6.9a1,1,0,0,1-.26.67,7.6,7.6,0,0,1-.64.63,6.28,6.28,0,0,0-.49.43,2.93,2.93,0,0,0-.45.54,2.72,2.72,0,0,0-.33.66,2.62,2.62,0,0,0-.13.83V11a.43.43,0,0,0,0,.12.39.39,0,0,0,.08.1.18.18,0,0,0,.1.07.21.21,0,0,0,.12,0H6.72l.12,0a.23.23,0,0,0,.1-.07.36.36,0,0,0,.07-.1.5.5,0,0,0,0-.12V10.8a1,1,0,0,1,.27-.7A8,8,0,0,1,8,9.47c.18-.15.35-.31.52-.48A7,7,0,0,0,9,8.39a3.23,3.23,0,0,0,.36-.72,3.07,3.07,0,0,0,.13-1,2.66,2.66,0,0,0-.29-1.27A2.58,2.58,0,0,0,8.39,4.54Z"></path>
      <!-- Right ! shadow -->
      <path d="M12.57,14.6a.51.51,0,0,1,0,.13.44.44,0,0,1-.08.11l-.11.08-.13,0h-2l-.13,0L10,14.84A.41.41,0,0,1,10,14.6V12.7a.32.32,0,0,1,.09-.23.39.39,0,0,1,.1-.08l.13,0h2a.31.31,0,0,1,.24.1.39.39,0,0,1,.08.1.51.51,0,0,1,0,.13Zm-.12-3.93a.17.17,0,0,1,0,.12.41.41,0,0,1-.07.11.4.4,0,0,1-.23.08H10.35a.31.31,0,0,1-.34-.31L9.86,3.9A.36.36,0,0,1,10,3.66a.23.23,0,0,1,.11-.08.27.27,0,0,1,.13,0H12.3a.32.32,0,0,1,.25.1.36.36,0,0,1,.09.24Z"></path>
    </g>
    <g>
      <!-- Left ? component -->
      <path class="icon-component" fill="#000000" d="M6.79,12.15H4.91l-.12,0a.34.34,0,0,0-.18.29v1.82a.36.36,0,0,0,.08.23.23.23,0,0,0,.1.07l.12,0H6.79a.24.24,0,0,0,.12,0A.26.26,0,0,0,7,14.51a.36.36,0,0,0,.07-.1.28.28,0,0,0,0-.13V12.46a.27.27,0,0,0,0-.12.61.61,0,0,0-.07-.1A.32.32,0,0,0,6.79,12.15Z"></path>
      <path class="icon-component" fill="#000000" d="M8.39,4A3.76,3.76,0,0,0,7.3,3.48a4.07,4.07,0,0,0-1.2-.19,3.92,3.92,0,0,0-1.18.17,5.87,5.87,0,0,0-.9.37,3.37,3.37,0,0,0-.55.38l-.21.19a.32.32,0,0,0,0,.41l1,1.2a.26.26,0,0,0,.2.12.48.48,0,0,0,.24-.06L4.78,6a2.9,2.9,0,0,1,.29-.19l.4-.17A1.66,1.66,0,0,1,6,5.56a1.1,1.1,0,0,1,.72.24.72.72,0,0,1,.23.26A.77.77,0,0,1,7,6.4a1,1,0,0,1-.26.67,7.6,7.6,0,0,1-.64.63,6.28,6.28,0,0,0-.49.43,2.93,2.93,0,0,0-.45.54,2.72,2.72,0,0,0-.33.66,2.62,2.62,0,0,0-.13.83v.35a.43.43,0,0,0,0,.12.39.39,0,0,0,.08.1.18.18,0,0,0,.1.07.21.21,0,0,0,.12,0H6.72l.12,0a.23.23,0,0,0,.1-.07.36.36,0,0,0,.07-.1.5.5,0,0,0,0-.12V10.3a1,1,0,0,1,.27-.7A8,8,0,0,1,8,9c.18-.15.35-.31.52-.48A7,7,0,0,0,9,7.89a3.23,3.23,0,0,0,.36-.72,3.07,3.07,0,0,0,.13-1A2.66,2.66,0,0,0,9.15,5,2.58,2.58,0,0,0,8.39,4Z"></path>
      <!-- Right ! component -->
      <path class="icon-component" fill="#000000" d="M12.57,14.1a.51.51,0,0,1,0,.13.44.44,0,0,1-.08.11l-.11.08-.13,0h-2l-.13,0L10,14.34A.41.41,0,0,1,10,14.1V12.2A.32.32,0,0,1,10,12a.39.39,0,0,1,.1-.08l.13,0h2a.31.31,0,0,1,.24.1.39.39,0,0,1,.08.1.51.51,0,0,1,0,.13Zm-.12-3.93a.17.17,0,0,1,0,.12.41.41,0,0,1-.07.11.4.4,0,0,1-.23.08H10.35a.31.31,0,0,1-.34-.31L9.86,3.4A.36.36,0,0,1,10,3.16a.23.23,0,0,1,.11-.08.27.27,0,0,1,.13,0H12.3a.32.32,0,0,1,.25.1.36.36,0,0,1,.09.24Z"></path>
    </g>
  </g>
</svg>
