<svg xmlns="http://www.w3.org/2000/svg" width="24" height="24" viewBox="0 0 18 19">
  <g id="annotation_black_slight_advantage">
    <path class="icon-shadow" opacity="0.3" d="M9,.5a9,9,0,1,0,9,9A9,9,0,0,0,9,.5Z"></path>
    <path class="icon-background" fill="#000000" d="M9,0a9,9,0,1,0,9,9A9,9,0,0,0,9,0Z"></path>
    <!-- Shadow -->
    <g class="icon-component-shadow" opacity="0.2">
      <line x1="6.5" y1="5" x2="11.5" y2="5" stroke="#000000" stroke-width="2" stroke-linecap="round"></line>
      <line x1="6.5" y1="7.5" x2="11.5" y2="7.5" stroke="#000000" stroke-width="2" stroke-linecap="round"></line>
      <line x1="9" y1="10.5" x2="9" y2="14.5" stroke="#000000" stroke-width="2" stroke-linecap="round"></line>
      <line x1="6.5" y1="12.5" x2="11.5" y2="12.5" stroke="#000000" stroke-width="2" stroke-linecap="round"></line>
    </g>
    <!-- Foreground -->
    <g>
      <line class="icon-component" x1="6.5" y1="4.5" x2="11.5" y2="4.5" stroke="#ffffff" stroke-width="2" stroke-linecap="round"></line>
      <line class="icon-component" x1="6.5" y1="7" x2="11.5" y2="7" stroke="#ffffff" stroke-width="2" stroke-linecap="round"></line>
      <line class="icon-component" x1="9" y1="10" x2="9" y2="14" stroke="#ffffff" stroke-width="2" stroke-linecap="round"></line>
      <line class="icon-component" x1="6.5" y1="12" x2="11.5" y2="12" stroke="#ffffff" stroke-width="2" stroke-linecap="round"></line>
    </g>
  </g>
</svg>
