<svg xmlns="http://www.w3.org/2000/svg" width="24" height="24" viewBox="0 0 18 19">
  <g id="annotation_compensation_white">
    <path class="icon-shadow" opacity="0.3" d="M9,.5a9,9,0,1,0,9,9A9,9,0,0,0,9,.5Z"></path>
    <path class="icon-background" fill="#000000" d="M9,0a9,9,0,1,0,9,9A9,9,0,0,0,9,0Z"></path>
    <!-- Shadow -->
    <g class="icon-component-shadow" opacity="0.2">
      <line x1="5" y1="5.5" x2="13" y2="5.5" stroke="#000000" stroke-width="2" stroke-linecap="round"></line>
      <line x1="5" y1="8" x2="13" y2="8" stroke="#000000" stroke-width="2" stroke-linecap="round"></line>
      <path d="M 9,13 C 7.5,11 5.5,11 5.5,13 C 5.5,15 7.5,15 9,13 C 10.5,11 12.5,11 12.5,13 C 12.5,15 10.5,15 9,13 Z" stroke="#000000" stroke-width="2" stroke-linecap="round" stroke-linejoin="round" fill="none"></path>
    </g>
    <!-- Foreground -->
    <g>
      <line class="icon-component" x1="5" y1="5" x2="13" y2="5" stroke="#000000" stroke-width="2" stroke-linecap="round"></line>
      <line class="icon-component" x1="5" y1="7.5" x2="13" y2="7.5" stroke="#000000" stroke-width="2" stroke-linecap="round"></line>
      <path class="icon-component" d="M 9,12.5 C 7.5,10.5 5.5,10.5 5.5,12.5 C 5.5,14.5 7.5,14.5 9,12.5 C 10.5,10.5 12.5,10.5 12.5,12.5 C 12.5,14.5 10.5,14.5 9,12.5 Z" stroke="#000000" stroke-width="2" stroke-linecap="round" stroke-linejoin="round" fill="none"></path>
    </g>
  </g>
</svg>
