<svg xmlns="http://www.w3.org/2000/svg" width="24" height="24" viewBox="0 0 18 19">
  <g id="loser">
    <path class="icon-shadow" opacity="0.3" d="M9,.5a9,9,0,1,0,9,9A9,9,0,0,0,9,.5Z"></path>
    <path class="icon-background" fill="#FA412D" d="M9,0a9,9,0,1,0,9,9A9,9,0,0,0,9,0Z"></path>
    <g class="icon-component-shadow" opacity="0.2">
      <path d="M 6 5 L 6 15 H 5 V 5 Z M 6.5 6 C 8 5, 11 7, 12.5 6 L 12.5 10 C 11 11, 8 9, 6.5 10 Z"></path>
      <circle cx="5.5" cy="4.3" r="0.6"></circle>
    </g>
    <g class="icon-component" fill="#fff">
      <path d="M 6 4.5 L 6 14.5 H 5 V 4.5 Z M 6.5 5.5 C 8 4.5, 11 6.5, 12.5 5.5 L 12.5 9.5 C 11 10.5, 8 8.5, 6.5 9.5 Z"></path>
      <circle cx="5.5" cy="3.8" r="0.6"></circle>
    </g>
  </g>
</svg>
