<svg xmlns="http://www.w3.org/2000/svg" width="24" height="24" viewBox="0 0 18 19">
  <g id="incorrect">
    <path class="icon-shadow" opacity="0.3" d="M9,.5C4.03,.5,0,4.53,0,9.5s4.03,9,9,9,9-4.03,9-9S13.97,.5,9,.5Z"></path>
    <path class="icon-background" fill="#FF7769" d="M9,0C4.03,0,0,4.03,0,9s4.03,9,9,9,9-4.03,9-9S13.97,0,9,0Z"></path>
    <g class="icon-component-shadow" opacity="0.2">
      <path d="M13.99,12.51s.06,.08,.08,.13c.02,.05,.03,.1,.03,.15s-.01,.1-.03,.15c-.02,.05-.05,.09-.08,.13l-1.37,1.37s-.08,.06-.13,.08c-.05,.02-.1,.03-.15,.03s-.1-.01-.15-.03c-.05-.02-.09-.05-.13-.08l-3.06-3.06-3.06,3.06s-.08,.06-.13,.08c-.05,.02-.1,.03-.15,.03s-.1-.01-.15-.03c-.05-.02-.09-.05-.13-.08l-1.37-1.37c-.07-.07-.11-.17-.11-.28s.04-.2,.11-.28l3.06-3.06-3.06-3.06c-.07-.07-.11-.17-.11-.28s.04-.2,.11-.28l1.37-1.37c.07-.07,.17-.11,.28-.11s.2,.04,.28,.11l3.06,3.06,3.06-3.06c.07-.07,.17-.11,.28-.11s.2,.04,.28,.11l1.37,1.37s.06,.08,.08,.13c.02,.05,.03,.1,.03,.15s-.01,.1-.03,.15c-.02,.05-.05,.09-.08,.13l-3.06,3.06,3.06,3.06Z"></path>
    </g>
    <path class="icon-component" fill="#f1f2f2" d="M13.99,12.01s.06,.08,.08,.13c.02,.05,.03,.1,.03,.15s-.01,.1-.03,.15c-.02,.05-.05,.09-.08,.13l-1.37,1.37s-.08,.06-.13,.08c-.05,.02-.1,.03-.15,.03s-.1-.01-.15-.03c-.05-.02-.09-.05-.13-.08l-3.06-3.06-3.06,3.06s-.08,.06-.13,.08c-.05,.02-.1,.03-.15,.03s-.1-.01-.15-.03c-.05-.02-.09-.05-.13-.08l-1.37-1.37c-.07-.07-.11-.17-.11-.28s.04-.2,.11-.28l3.06-3.06-3.06-3.06c-.07-.07-.11-.17-.11-.28s.04-.2,.11-.28l1.37-1.37c.07-.07,.17-.11,.28-.11s.2,.04,.28,.11l3.06,3.06,3.06-3.06c.07-.07,.17-.11,.28-.11s.2,.04,.28,.11l1.37,1.37s.06,.08,.08,.13c.02,.05,.03,.1,.03,.15s-.01,.1-.03,.15c-.02,.05-.05,.09-.08,.13l-3.06,3.06,3.06,3.06Z"></path>
  </g>
</svg>
